<?xml version="1.0" encoding="UTF-8"?>
<svg xmlns="http://www.w3.org/2000/svg" xmlns:xlink="http://www.w3.org/1999/xlink" width="32px" height="32px" viewBox="0 0 32 32" version="1.1">
<defs>
<linearGradient id="linear0" gradientUnits="userSpaceOnUse" x1="49.096699" y1="56.751701" x2="49.096699" y2="48.5481" gradientTransform="matrix(0.4,0,0,0.4,0,0)">
<stop offset="0.00132565" style="stop-color:rgb(100%,79.607843%,29.411765%);stop-opacity:1;"/>
<stop offset="1" style="stop-color:rgb(100%,84.313725%,28.235294%);stop-opacity:1;"/>
</linearGradient>
<linearGradient id="linear1" gradientUnits="userSpaceOnUse" x1="30.8911" y1="14.6844" x2="49.8367" y2="78.807899" gradientTransform="matrix(0.4,0,0,0.4,0,0)">
<stop offset="0.00132565" style="stop-color:rgb(100%,79.607843%,29.411765%);stop-opacity:1;"/>
<stop offset="1" style="stop-color:rgb(100%,84.313725%,28.235294%);stop-opacity:1;"/>
</linearGradient>
<radialGradient id="radial0" gradientUnits="userSpaceOnUse" cx="43.792198" cy="19.561501" fx="43.792198" fy="19.561501" r="78.685204" gradientTransform="matrix(0.4,0,0,0.4,0,0)">
<stop offset="0.365" style="stop-color:rgb(100%,73.72549%,27.843137%);stop-opacity:0;"/>
<stop offset="1" style="stop-color:rgb(100%,53.72549%,0%);stop-opacity:1;"/>
</radialGradient>
<linearGradient id="linear2" gradientUnits="userSpaceOnUse" x1="53.2603" y1="73.753098" x2="52.652599" y2="28.9076" gradientTransform="matrix(0.4,0,0,0.4,0,0)">
<stop offset="0" style="stop-color:rgb(100%,73.72549%,27.843137%);stop-opacity:0;"/>
<stop offset="1" style="stop-color:rgb(78.431373%,43.529412%,20.392157%);stop-opacity:1;"/>
</linearGradient>
<linearGradient id="linear3" gradientUnits="userSpaceOnUse" x1="57.612" y1="56.568901" x2="57.612" y2="25.4692" gradientTransform="matrix(0.4,0,0,0.4,0,0)">
<stop offset="0.00132565" style="stop-color:rgb(100%,79.607843%,29.411765%);stop-opacity:1;"/>
<stop offset="1" style="stop-color:rgb(100%,84.313725%,28.235294%);stop-opacity:1;"/>
</linearGradient>
<linearGradient id="linear4" gradientUnits="userSpaceOnUse" x1="39.961201" y1="56.6035" x2="39.961201" y2="25.5877" gradientTransform="matrix(0.4,0,0,0.4,0,0)">
<stop offset="0.00132565" style="stop-color:rgb(100%,79.607843%,29.411765%);stop-opacity:1;"/>
<stop offset="1" style="stop-color:rgb(100%,84.313725%,28.235294%);stop-opacity:1;"/>
</linearGradient>
<linearGradient id="linear5" gradientUnits="userSpaceOnUse" x1="13.5373" y1="56.6007" x2="13.5373" y2="25.500999" gradientTransform="matrix(0.4,0,0,0.4,0,0)">
<stop offset="0.00132565" style="stop-color:rgb(100%,79.607843%,29.411765%);stop-opacity:1;"/>
<stop offset="1" style="stop-color:rgb(100%,84.313725%,28.235294%);stop-opacity:1;"/>
</linearGradient>
<linearGradient id="linear6" gradientUnits="userSpaceOnUse" x1="25.706301" y1="56.601299" x2="25.706301" y2="25.501499" gradientTransform="matrix(0.4,0,0,0.4,0,0)">
<stop offset="0.00132565" style="stop-color:rgb(100%,79.607843%,29.411765%);stop-opacity:1;"/>
<stop offset="1" style="stop-color:rgb(100%,84.313725%,28.235294%);stop-opacity:1;"/>
</linearGradient>
<linearGradient id="linear7" gradientUnits="userSpaceOnUse" x1="50.311901" y1="82.072601" x2="3.48669" y2="-82.303596" gradientTransform="matrix(0.4,0,0,0.4,0,0)">
<stop offset="0" style="stop-color:rgb(100%,73.72549%,27.843137%);stop-opacity:0;"/>
<stop offset="1" style="stop-color:rgb(78.431373%,43.529412%,20.392157%);stop-opacity:1;"/>
</linearGradient>
<linearGradient id="linear8" gradientUnits="userSpaceOnUse" x1="56.823299" y1="22.6066" x2="48.465099" y2="85.838699" gradientTransform="matrix(0.4,0,0,0.4,0,0)">
<stop offset="0" style="stop-color:rgb(100%,73.72549%,27.843137%);stop-opacity:0;"/>
<stop offset="1" style="stop-color:rgb(78.431373%,43.529412%,20.392157%);stop-opacity:1;"/>
</linearGradient>
<radialGradient id="radial1" gradientUnits="userSpaceOnUse" cx="42.511902" cy="37.487598" fx="42.511902" fy="37.487598" r="55.904099" gradientTransform="matrix(0.4,0,0,0.4,0,0)">
<stop offset="0" style="stop-color:rgb(100%,73.72549%,27.843137%);stop-opacity:0;"/>
<stop offset="1" style="stop-color:rgb(100%,65.490196%,32.941176%);stop-opacity:1;"/>
</radialGradient>
<linearGradient id="linear9" gradientUnits="userSpaceOnUse" x1="13.4705" y1="44.5541" x2="13.9583" y2="63.333" gradientTransform="matrix(0.4,0,0,0.4,0,0)">
<stop offset="0" style="stop-color:rgb(100%,73.72549%,27.843137%);stop-opacity:0;"/>
<stop offset="1" style="stop-color:rgb(78.431373%,43.529412%,20.392157%);stop-opacity:1;"/>
</linearGradient>
<linearGradient id="linear10" gradientUnits="userSpaceOnUse" x1="25.951099" y1="48.3657" x2="27.9021" y2="68.120102" gradientTransform="matrix(0.4,0,0,0.4,0,0)">
<stop offset="0" style="stop-color:rgb(100%,73.72549%,27.843137%);stop-opacity:0;"/>
<stop offset="1" style="stop-color:rgb(78.431373%,43.529412%,20.392157%);stop-opacity:1;"/>
</linearGradient>
<linearGradient id="linear11" gradientUnits="userSpaceOnUse" x1="40.692001" y1="44.345798" x2="41.332199" y2="68.490097" gradientTransform="matrix(0.4,0,0,0.4,0,0)">
<stop offset="0" style="stop-color:rgb(100%,73.72549%,27.843137%);stop-opacity:0;"/>
<stop offset="1" style="stop-color:rgb(78.431373%,43.529412%,20.392157%);stop-opacity:1;"/>
</linearGradient>
<linearGradient id="linear12" gradientUnits="userSpaceOnUse" x1="54.3564" y1="18.846399" x2="70.0867" y2="110.485001" gradientTransform="matrix(0.4,0,0,0.4,0,0)">
<stop offset="0" style="stop-color:rgb(100%,73.72549%,27.843137%);stop-opacity:0;"/>
<stop offset="1" style="stop-color:rgb(78.431373%,43.529412%,20.392157%);stop-opacity:1;"/>
</linearGradient>
<filter id="alpha" filterUnits="objectBoundingBox" x="0%" y="0%" width="100%" height="100%">
  <feColorMatrix type="matrix" in="SourceGraphic" values="0 0 0 0 1 0 0 0 0 1 0 0 0 0 1 0 0 0 1 0"/>
</filter>
<mask id="mask0">
  <g filter="url(#alpha)">
<rect x="0" y="0" width="32" height="32" style="fill:rgb(0%,0%,0%);fill-opacity:0.74902;stroke:none;"/>
  </g>
</mask>
<radialGradient id="radial2" gradientUnits="userSpaceOnUse" cx="0" cy="0" fx="0" fy="0" r="1" gradientTransform="matrix(-0.30137,-2.779035,1.504996,-0.163208,5.1138,16.89632)">
<stop offset="0" style="stop-color:rgb(98.431373%,87.843137%,47.843137%);stop-opacity:1;"/>
<stop offset="0.2654" style="stop-color:rgb(98.823529%,87.45098%,45.098039%);stop-opacity:0.733333;"/>
<stop offset="0.6548" style="stop-color:rgb(99.215686%,85.882353%,37.254902%);stop-opacity:0.345098;"/>
<stop offset="1" style="stop-color:rgb(100%,84.313725%,28.235294%);stop-opacity:0;"/>
</radialGradient>
<clipPath id="clip1">
  <rect x="0" y="0" width="32" height="32"/>
</clipPath>
<g id="surface5" clip-path="url(#clip1)">
<path style=" stroke:none;fill-rule:nonzero;fill:url(#radial2);" d="M 4.894531 14.175781 C 5.734375 14.0625 6.320312 15.363281 6.597656 16.835938 C 6.828125 18.042969 6.304688 19.5 5.480469 19.589844 C 4.660156 19.679688 3.910156 19.613281 3.632812 17.074219 C 3.46875 15.582031 4.074219 14.285156 4.894531 14.175781 Z M 4.894531 14.175781 "/>
</g>
<mask id="mask1">
  <g filter="url(#alpha)">
<rect x="0" y="0" width="32" height="32" style="fill:rgb(0%,0%,0%);fill-opacity:0.74902;stroke:none;"/>
  </g>
</mask>
<radialGradient id="radial3" gradientUnits="userSpaceOnUse" cx="0" cy="0" fx="0" fy="0" r="1" gradientTransform="matrix(-0.148839,-1.36538,1.833506,-0.199869,5.7008,11.52252)">
<stop offset="0" style="stop-color:rgb(98.431373%,87.843137%,47.843137%);stop-opacity:1;"/>
<stop offset="0.2654" style="stop-color:rgb(98.823529%,87.45098%,45.098039%);stop-opacity:0.733333;"/>
<stop offset="0.6548" style="stop-color:rgb(99.215686%,85.882353%,37.254902%);stop-opacity:0.345098;"/>
<stop offset="1" style="stop-color:rgb(100%,84.313725%,28.235294%);stop-opacity:0;"/>
</radialGradient>
<clipPath id="clip2">
  <rect x="0" y="0" width="32" height="32"/>
</clipPath>
<g id="surface8" clip-path="url(#clip2)">
<path style=" stroke:none;fill-rule:nonzero;fill:url(#radial3);" d="M 5.648438 10.179688 C 6.671875 10.070312 7.28125 10.679688 7.503906 11.398438 C 7.6875 11.984375 6.941406 12.742188 5.9375 12.839844 C 4.933594 12.9375 4.03125 12.953125 3.890625 11.707031 C 3.8125 10.976562 4.644531 10.289062 5.648438 10.179688 Z M 5.648438 10.179688 "/>
</g>
<mask id="mask2">
  <g filter="url(#alpha)">
<rect x="0" y="0" width="32" height="32" style="fill:rgb(0%,0%,0%);fill-opacity:0.74902;stroke:none;"/>
  </g>
</mask>
<radialGradient id="radial4" gradientUnits="userSpaceOnUse" cx="0" cy="0" fx="0" fy="0" r="1" gradientTransform="matrix(-0.376403,-1.321022,1.773989,-0.505468,10.00048,9.91016)">
<stop offset="0" style="stop-color:rgb(98.431373%,87.843137%,47.843137%);stop-opacity:1;"/>
<stop offset="0.2654" style="stop-color:rgb(98.823529%,87.45098%,45.098039%);stop-opacity:0.733333;"/>
<stop offset="0.6548" style="stop-color:rgb(99.215686%,85.882353%,37.254902%);stop-opacity:0.345098;"/>
<stop offset="1" style="stop-color:rgb(100%,84.313725%,28.235294%);stop-opacity:0;"/>
</radialGradient>
<clipPath id="clip3">
  <rect x="0" y="0" width="32" height="32"/>
</clipPath>
<g id="surface11" clip-path="url(#clip3)">
<path style=" stroke:none;fill-rule:nonzero;fill:url(#radial4);" d="M 9.722656 8.601562 C 10.714844 8.320312 11.417969 8.816406 11.757812 9.488281 C 12.035156 10.035156 11.429688 10.910156 10.457031 11.175781 C 9.484375 11.441406 8.597656 11.609375 8.253906 10.402344 C 8.050781 9.691406 8.753906 8.875 9.722656 8.601562 Z M 9.722656 8.601562 "/>
</g>
<mask id="mask3">
  <g filter="url(#alpha)">
<rect x="0" y="0" width="32" height="32" style="fill:rgb(0%,0%,0%);fill-opacity:0.74902;stroke:none;"/>
  </g>
</mask>
<radialGradient id="radial5" gradientUnits="userSpaceOnUse" cx="0" cy="0" fx="0" fy="0" r="1" gradientTransform="matrix(-0.617119,-2.16713,2.561569,-0.729441,15.96792,7.96092)">
<stop offset="0" style="stop-color:rgb(98.431373%,87.843137%,47.843137%);stop-opacity:1;"/>
<stop offset="0.2654" style="stop-color:rgb(98.823529%,87.45098%,45.098039%);stop-opacity:0.733333;"/>
<stop offset="0.6548" style="stop-color:rgb(99.215686%,85.882353%,37.254902%);stop-opacity:0.345098;"/>
<stop offset="1" style="stop-color:rgb(100%,84.313725%,28.235294%);stop-opacity:0;"/>
</radialGradient>
<clipPath id="clip4">
  <rect x="0" y="0" width="32" height="32"/>
</clipPath>
<g id="surface14" clip-path="url(#clip4)">
<path style=" stroke:none;fill-rule:nonzero;fill:url(#radial5);" d="M 15.496094 5.820312 C 16.929688 5.414062 17.976562 6.261719 18.507812 7.367188 C 18.945312 8.269531 18.101562 9.660156 16.699219 10.042969 C 15.292969 10.425781 14.007812 10.648438 13.441406 8.671875 C 13.109375 7.507812 14.09375 6.21875 15.496094 5.820312 Z M 15.496094 5.820312 "/>
</g>
<mask id="mask4">
  <g filter="url(#alpha)">
<rect x="0" y="0" width="32" height="32" style="fill:rgb(0%,0%,0%);fill-opacity:0.74902;stroke:none;"/>
  </g>
</mask>
<radialGradient id="radial6" gradientUnits="userSpaceOnUse" cx="0" cy="0" fx="0" fy="0" r="1" gradientTransform="matrix(0.156969,-1.613278,1.99429,0.194041,22.62948,8.21572)">
<stop offset="0" style="stop-color:rgb(98.431373%,87.843137%,47.843137%);stop-opacity:1;"/>
<stop offset="0.2654" style="stop-color:rgb(98.823529%,87.45098%,45.098039%);stop-opacity:0.733333;"/>
<stop offset="0.6548" style="stop-color:rgb(99.215686%,85.882353%,37.254902%);stop-opacity:0.345098;"/>
<stop offset="1" style="stop-color:rgb(100%,84.313725%,28.235294%);stop-opacity:0;"/>
</radialGradient>
<clipPath id="clip5">
  <rect x="0" y="0" width="32" height="32"/>
</clipPath>
<g id="surface17" clip-path="url(#clip5)">
<path style=" stroke:none;fill-rule:nonzero;fill:url(#radial6);" d="M 22.878906 6.65625 C 23.996094 6.765625 24.5 7.613281 24.574219 8.492188 C 24.632812 9.214844 23.664062 9.917969 22.574219 9.800781 C 21.484375 9.679688 20.523438 9.492188 20.664062 8.015625 C 20.75 7.148438 21.789062 6.550781 22.878906 6.65625 Z M 22.878906 6.65625 "/>
</g>
<mask id="mask5">
  <g filter="url(#alpha)">
<rect x="0" y="0" width="32" height="32" style="fill:rgb(0%,0%,0%);fill-opacity:0.74902;stroke:none;"/>
  </g>
</mask>
<radialGradient id="radial7" gradientUnits="userSpaceOnUse" cx="0" cy="0" fx="0" fy="0" r="1" gradientTransform="matrix(-0.339227,-3.17795,1.684781,-0.17984,9.58076,17.13528)">
<stop offset="0" style="stop-color:rgb(98.431373%,87.843137%,47.843137%);stop-opacity:1;"/>
<stop offset="0.2654" style="stop-color:rgb(98.823529%,87.45098%,45.098039%);stop-opacity:0.733333;"/>
<stop offset="0.6548" style="stop-color:rgb(99.215686%,85.882353%,37.254902%);stop-opacity:0.345098;"/>
<stop offset="1" style="stop-color:rgb(100%,84.313725%,28.235294%);stop-opacity:0;"/>
</radialGradient>
<clipPath id="clip6">
  <rect x="0" y="0" width="32" height="32"/>
</clipPath>
<g id="surface20" clip-path="url(#clip6)">
<path style=" stroke:none;fill-rule:nonzero;fill:url(#radial7);" d="M 9.328125 14.03125 C 10.265625 13.894531 10.921875 15.375 11.238281 17.058594 C 11.492188 18.4375 10.910156 20.113281 9.992188 20.226562 C 9.070312 20.335938 8.234375 20.269531 7.921875 17.371094 C 7.738281 15.660156 8.414062 14.167969 9.328125 14.03125 Z M 9.328125 14.03125 "/>
</g>
<mask id="mask6">
  <g filter="url(#alpha)">
<rect x="0" y="0" width="32" height="32" style="fill:rgb(0%,0%,0%);fill-opacity:0.74902;stroke:none;"/>
  </g>
</mask>
<radialGradient id="radial8" gradientUnits="userSpaceOnUse" cx="0" cy="0" fx="0" fy="0" r="1" gradientTransform="matrix(-0.428924,-4.03386,2.655757,-0.282389,16.277361,16.6214)">
<stop offset="0" style="stop-color:rgb(98.431373%,87.843137%,47.843137%);stop-opacity:1;"/>
<stop offset="0.2654" style="stop-color:rgb(98.823529%,87.45098%,45.098039%);stop-opacity:0.733333;"/>
<stop offset="0.6548" style="stop-color:rgb(99.215686%,85.882353%,37.254902%);stop-opacity:0.345098;"/>
<stop offset="1" style="stop-color:rgb(100%,84.313725%,28.235294%);stop-opacity:0;"/>
</radialGradient>
<clipPath id="clip7">
  <rect x="0" y="0" width="32" height="32"/>
</clipPath>
<g id="surface23" clip-path="url(#clip7)">
<path style=" stroke:none;fill-rule:nonzero;fill:url(#radial8);" d="M 15.984375 12.679688 C 17.464844 12.472656 18.445312 14.332031 18.882812 16.46875 C 19.242188 18.214844 18.269531 20.363281 16.820312 20.539062 C 15.371094 20.714844 14.058594 20.65625 13.660156 16.972656 C 13.429688 14.800781 14.539062 12.882812 15.984375 12.679688 Z M 15.984375 12.679688 "/>
</g>
<mask id="mask7">
  <g filter="url(#alpha)">
<rect x="0" y="0" width="32" height="32" style="fill:rgb(0%,0%,0%);fill-opacity:0.74902;stroke:none;"/>
  </g>
</mask>
<radialGradient id="radial9" gradientUnits="userSpaceOnUse" cx="0" cy="0" fx="0" fy="0" r="1" gradientTransform="matrix(-0.152883,-4.055679,2.059757,-0.0776446,22.866319,16.4308)">
<stop offset="0" style="stop-color:rgb(98.431373%,87.843137%,47.843137%);stop-opacity:1;"/>
<stop offset="0.2654" style="stop-color:rgb(98.823529%,87.45098%,45.098039%);stop-opacity:0.733333;"/>
<stop offset="0.6548" style="stop-color:rgb(99.215686%,85.882353%,37.254902%);stop-opacity:0.345098;"/>
<stop offset="1" style="stop-color:rgb(100%,84.313725%,28.235294%);stop-opacity:0;"/>
</radialGradient>
<clipPath id="clip8">
  <rect x="0" y="0" width="32" height="32"/>
</clipPath>
<g id="surface26" clip-path="url(#clip8)">
<path style=" stroke:none;fill-rule:nonzero;fill:url(#radial9);" d="M 22.820312 12.46875 C 23.96875 12.375 24.644531 14.304688 24.886719 16.464844 C 25.085938 18.234375 24.242188 20.304688 23.117188 20.371094 C 21.992188 20.4375 20.984375 20.285156 20.839844 16.582031 C 20.757812 14.398438 21.695312 12.5625 22.820312 12.46875 Z M 22.820312 12.46875 "/>
</g>
<linearGradient id="linear13" gradientUnits="userSpaceOnUse" x1="37.986099" y1="27.6276" x2="26.3557" y2="-16.1894" gradientTransform="matrix(0.4,0,0,0.4,0,0)">
<stop offset="0" style="stop-color:rgb(100%,73.72549%,27.843137%);stop-opacity:0;"/>
<stop offset="1" style="stop-color:rgb(78.431373%,43.529412%,20.392157%);stop-opacity:1;"/>
</linearGradient>
</defs>
<g id="surface1">
<path style=" stroke:none;fill-rule:nonzero;fill:url(#linear0);" d="M 19.636719 22.894531 C 20.808594 22.894531 21.761719 21.945312 21.761719 20.773438 C 21.761719 19.601562 20.808594 18.652344 19.636719 18.652344 C 18.46875 18.652344 17.515625 19.601562 17.515625 20.773438 C 17.515625 21.945312 18.46875 22.894531 19.636719 22.894531 Z M 19.636719 22.894531 "/>
<path style=" stroke:none;fill-rule:nonzero;fill:url(#linear1);" d="M 7.542969 21.554688 C 6.324219 22.191406 3.203125 23.066406 3.203125 16.921875 C 3.203125 10.773438 4.421875 9.507812 5.371094 9.507812 C 6.324219 9.507812 6.957031 9.605469 7.640625 8.726562 C 8.324219 7.847656 9.394531 7.410156 10.957031 7.554688 C 12.515625 7.703125 13.023438 6.777344 13.609375 5.996094 C 14.195312 5.21875 15.785156 4.191406 17.25 5.261719 C 18.710938 6.335938 19.640625 6.433594 20.664062 5.847656 C 21.6875 5.261719 24.371094 5.164062 25.492188 7.457031 C 26.613281 9.75 27.152344 11.996094 27.152344 13.554688 C 27.152344 15.117188 27.6875 16.480469 28.226562 17.554688 C 28.761719 18.628906 29.347656 20.917969 27.835938 23.554688 C 26.320312 26.1875 26.222656 27.015625 24.273438 26.871094 C 22.324219 26.726562 20.863281 26.382812 16.664062 26.382812 C 15.882812 26.382812 14.761719 26.042969 14.761719 24.96875 C 14.761719 23.894531 15.933594 22.773438 17.398438 22.1875 C 18.859375 21.601562 23.152344 21.066406 23.785156 19.847656 C 24.421875 18.628906 15.59375 19.457031 15.59375 19.457031 Z M 7.542969 21.554688 "/>
<path style=" stroke:none;fill-rule:nonzero;fill:url(#radial0);" d="M 27.832031 23.554688 C 29.34375 20.921875 28.757812 18.628906 28.222656 17.554688 C 27.753906 16.613281 27.28125 15.445312 27.175781 14.117188 C 27.226562 15.359375 25.054688 19.203125 23.785156 19.847656 C 23.152344 21.066406 18.859375 21.601562 17.394531 22.1875 C 15.933594 22.773438 14.761719 23.894531 14.761719 24.96875 C 14.761719 26.042969 15.882812 26.382812 16.664062 26.382812 C 20.863281 26.382812 22.320312 26.722656 24.273438 26.871094 C 26.222656 27.015625 26.320312 26.1875 27.832031 23.554688 Z M 27.832031 23.554688 "/>
<path style=" stroke:none;fill-rule:nonzero;fill:rgb(0%,0%,0%);fill-opacity:1;" d="M 26.03125 8.667969 C 26.132812 8.925781 26.21875 9.175781 26.308594 9.425781 C 26.21875 9.175781 26.132812 8.925781 26.03125 8.667969 Z M 26.03125 8.667969 "/>
<path style=" stroke:none;fill-rule:nonzero;fill:rgb(0%,0%,0%);fill-opacity:1;" d="M 25.113281 6.851562 C 25.136719 6.882812 25.160156 6.914062 25.183594 6.945312 C 25.160156 6.914062 25.136719 6.882812 25.113281 6.851562 Z M 25.113281 6.851562 "/>
<path style=" stroke:none;fill-rule:nonzero;fill:url(#linear2);" d="M 26.515625 10.128906 C 26.519531 10.0625 26.5 10.003906 26.492188 9.9375 C 26.480469 9.898438 26.460938 9.859375 26.449219 9.820312 C 26.367188 20.09375 26.515625 22.628906 23.246094 22.628906 C 19.980469 22.628906 19.734375 21.40625 19.734375 20.871094 C 19.734375 20.65625 19.71875 19.800781 19.699219 18.722656 L 19.699219 18.726562 C 19.699219 21.75 19.199219 22.96875 16.855469 22.96875 C 16.574219 22.96875 16.308594 22.960938 16.054688 22.941406 C 15.882812 23.074219 15.71875 23.214844 15.574219 23.359375 C 15.359375 23.574219 16.367188 24.53125 19.820312 24.03125 C 20.507812 23.929688 25.21875 25.421875 26.664062 22.476562 C 27.285156 21.207031 26.234375 18.707031 26.515625 10.128906 Z M 26.515625 10.128906 "/>
<path style=" stroke:none;fill-rule:nonzero;fill:url(#linear3);" d="M 26.449219 9.8125 C 26.199219 9.050781 25.882812 8.257812 25.492188 7.457031 C 24.367188 5.164062 21.6875 5.261719 20.660156 5.847656 C 20.316406 6.042969 19.984375 6.15625 19.636719 6.1875 L 19.636719 13.800781 C 19.636719 15.800781 19.734375 20.335938 19.734375 20.871094 C 19.734375 21.410156 19.980469 22.628906 23.246094 22.628906 C 26.515625 22.628906 26.371094 20.09375 26.449219 9.8125 Z M 26.449219 9.8125 "/>
<path style=" stroke:none;fill-rule:nonzero;fill:url(#linear4);" d="M 17.25 5.265625 C 15.785156 4.191406 14.195312 5.21875 13.609375 6 C 13.234375 6.5 12.875 6.941406 12.269531 7.296875 L 12.269531 7.300781 C 12.3125 10.332031 12.371094 13.019531 12.371094 13.019531 C 12.371094 15.652344 12.878906 18.277344 13.011719 19.804688 C 13.238281 22.398438 14.515625 22.96875 16.859375 22.96875 C 19.199219 22.96875 19.703125 21.75 19.703125 18.726562 C 19.703125 16.546875 19.703125 9.789062 19.703125 6.179688 C 19 6.265625 18.25 6 17.25 5.265625 Z M 17.25 5.265625 "/>
<path style=" stroke:none;fill-rule:nonzero;fill:url(#linear5);" d="M 6.90625 14.921875 C 6.832031 12.808594 7.007812 10.796875 7.253906 9.121094 C 6.703125 9.5625 6.140625 9.507812 5.371094 9.507812 C 4.417969 9.507812 3.199219 10.773438 3.199219 16.921875 C 3.199219 23.066406 6.320312 22.1875 7.539062 21.554688 L 7.628906 21.53125 C 7.234375 20.304688 7.03125 18.28125 6.90625 14.921875 Z M 6.90625 14.921875 "/>
<path style=" stroke:none;fill-rule:nonzero;fill:url(#linear6);" d="M 13.011719 19.804688 C 12.886719 18.363281 12.433594 15.9375 12.382812 13.449219 C 12.375 13.300781 12.371094 13.152344 12.371094 13.019531 C 12.371094 13.019531 12.3125 10.332031 12.269531 7.300781 C 12.269531 7.300781 12.269531 7.296875 12.269531 7.296875 C 11.929688 7.496094 11.515625 7.609375 10.957031 7.558594 C 9.398438 7.410156 8.324219 7.851562 7.640625 8.726562 C 7.511719 8.894531 7.382812 9.015625 7.253906 9.121094 C 7.007812 10.800781 6.832031 12.808594 6.910156 14.921875 C 7.203125 22.921875 7.957031 23.386719 10.617188 23.386719 C 12.140625 23.386719 13.234375 22.933594 13.675781 21.902344 C 13.675781 21.898438 13.671875 21.894531 13.671875 21.890625 C 13.316406 21.410156 13.09375 20.742188 13.011719 19.804688 Z M 13.011719 19.804688 "/>
<path style=" stroke:none;fill-rule:nonzero;fill:url(#linear7);" d="M 16.859375 22.96875 C 19.199219 22.96875 19.703125 21.75 19.703125 18.726562 L 19.703125 18.722656 C 19.722656 19.796875 19.738281 20.65625 19.738281 20.871094 C 19.738281 21.40625 19.980469 22.628906 23.25 22.628906 C 26.515625 22.628906 26.371094 20.09375 26.453125 9.8125 C 26.339844 9.472656 26.210938 9.125 26.070312 8.773438 C 25.601562 10.570312 24.859375 13.808594 24.859375 16.4375 C 24.859375 20.296875 23.640625 20.238281 21.542969 19.996094 C 19.445312 19.75 20.179688 12.140625 19.589844 12.140625 C 19.003906 12.140625 19.640625 18.652344 19.152344 19.410156 C 18.664062 20.164062 16.710938 20.777344 14.664062 20.386719 C 12.621094 19.996094 13.105469 12.628906 12.269531 12.628906 C 11.433594 12.628906 13.152344 21.410156 9.953125 21.410156 C 6.757812 21.410156 7.640625 14.578125 6.910156 14.578125 C 6.179688 14.578125 6.910156 18.53125 6.722656 19.652344 C 6.554688 20.652344 4.738281 20.914062 3.429688 19.394531 C 4.171875 22.785156 6.523438 22.085938 7.542969 21.554688 L 7.628906 21.53125 C 8.171875 23.222656 9.074219 23.382812 10.617188 23.382812 C 12.140625 23.382812 13.234375 22.929688 13.675781 21.898438 C 13.675781 21.898438 13.671875 21.890625 13.671875 21.890625 C 14.300781 22.734375 15.363281 22.96875 16.859375 22.96875 Z M 16.859375 22.96875 "/>
<path style=" stroke:none;fill-rule:nonzero;fill:rgb(59.215689%,33.333334%,0%);fill-opacity:1;" d="M 15.695312 22.90625 C 16.242188 22.933594 16.789062 22.914062 17.324219 22.863281 C 17.851562 22.800781 18.375 22.636719 18.742188 22.289062 C 19.117188 21.9375 19.289062 21.421875 19.394531 20.90625 C 19.507812 20.386719 19.546875 19.847656 19.570312 19.304688 C 19.613281 18.226562 19.582031 17.125 19.605469 16.035156 C 19.628906 14.945312 19.652344 13.851562 19.703125 12.761719 L 19.820312 19.3125 C 19.808594 19.863281 19.78125 20.414062 19.675781 20.964844 C 19.570312 21.507812 19.359375 22.078125 18.917969 22.480469 C 18.480469 22.886719 17.882812 23.011719 17.335938 23.039062 C 16.78125 23.058594 16.234375 23.007812 15.695312 22.90625 Z M 15.695312 22.90625 "/>
<path style=" stroke:none;fill-rule:nonzero;fill:rgb(59.215689%,33.333334%,0%);fill-opacity:1;" d="M 12.371094 13.019531 C 12.445312 13.796875 12.503906 14.570312 12.597656 15.339844 C 12.691406 16.109375 12.78125 16.878906 12.894531 17.648438 C 12.984375 18.417969 13.097656 19.195312 13.140625 19.96875 C 13.203125 20.726562 13.359375 21.507812 13.859375 22.117188 C 13.265625 21.585938 13.023438 20.765625 12.917969 19.996094 C 12.824219 19.222656 12.71875 18.457031 12.605469 17.6875 C 12.515625 16.914062 12.421875 16.140625 12.378906 15.359375 C 12.328125 14.578125 12.324219 13.796875 12.371094 13.019531 Z M 12.371094 13.019531 "/>
<path style=" stroke:none;fill-rule:nonzero;fill:rgb(59.215689%,33.333334%,0%);fill-opacity:1;" d="M 19.703125 12.761719 L 19.824219 19.503906 L 19.851562 20.347656 C 19.867188 20.625 19.839844 20.921875 19.894531 21.160156 C 20.003906 21.671875 20.476562 22.003906 20.976562 22.183594 C 21.488281 22.367188 22.042969 22.441406 22.59375 22.46875 C 23.144531 22.484375 23.707031 22.511719 24.222656 22.367188 C 24.738281 22.238281 25.171875 21.902344 25.425781 21.433594 C 25.578125 21.214844 25.648438 20.941406 25.75 20.691406 C 25.8125 20.425781 25.898438 20.164062 25.9375 19.886719 C 26.136719 18.792969 26.191406 17.671875 26.246094 16.550781 C 26.300781 15.429688 26.324219 14.308594 26.351562 13.183594 L 26.449219 9.8125 C 26.480469 12.0625 26.527344 14.308594 26.472656 16.558594 C 26.453125 17.683594 26.390625 18.8125 26.199219 19.933594 C 26.160156 20.214844 26.074219 20.492188 26.011719 20.773438 C 25.902344 21.039062 25.835938 21.324219 25.667969 21.574219 C 25.394531 22.09375 24.878906 22.507812 24.296875 22.648438 C 23.71875 22.800781 23.140625 22.765625 22.574219 22.746094 C 22.007812 22.710938 21.433594 22.632812 20.882812 22.429688 C 20.351562 22.238281 19.777344 21.84375 19.644531 21.214844 C 19.582031 20.902344 19.617188 20.628906 19.605469 20.347656 L 19.601562 19.507812 C 19.597656 17.257812 19.652344 15.007812 19.703125 12.761719 Z M 19.703125 12.761719 "/>
<path style=" stroke:none;fill-rule:nonzero;fill:rgb(59.215689%,33.333334%,0%);fill-opacity:1;" d="M 6.90625 14.921875 C 6.992188 15.5 7.042969 16.082031 7.097656 16.660156 L 7.25 18.394531 C 7.300781 18.972656 7.359375 19.550781 7.425781 20.125 C 7.496094 20.699219 7.582031 21.269531 7.734375 21.835938 C 7.46875 21.308594 7.320312 20.734375 7.203125 20.160156 C 7.082031 19.585938 7.015625 19.003906 6.960938 18.421875 C 6.867188 17.257812 6.839844 16.089844 6.90625 14.921875 Z M 6.90625 14.921875 "/>
<path style=" stroke:none;fill-rule:nonzero;fill:url(#linear8);" d="M 26.496094 16.96875 C 26.496094 14.945312 26.449219 9.816406 26.449219 9.816406 C 26.367188 20.09375 26.515625 22.628906 23.246094 22.628906 C 19.980469 22.628906 19.734375 21.410156 19.734375 20.871094 L 19.703125 18.726562 C 19.703125 21.75 19.199219 22.96875 16.855469 22.96875 C 16.570312 22.96875 16.304688 22.957031 16.046875 22.9375 C 16.046875 22.9375 16.046875 22.941406 16.042969 22.945312 C 15.871094 23.074219 15.714844 23.214844 15.570312 23.355469 C 19.308594 23.847656 19.417969 21.910156 19.746094 22.238281 C 20.5625 23.054688 23.417969 24.042969 25.050781 22.96875 C 27.015625 21.683594 26.496094 18.996094 26.496094 16.96875 Z M 26.496094 16.96875 "/>
<path style=" stroke:none;fill-rule:nonzero;fill:url(#radial1);" d="M 27.832031 23.554688 C 29.34375 20.921875 28.757812 18.628906 28.222656 17.554688 C 28.050781 17.214844 27.882812 16.839844 27.730469 16.4375 C 27.726562 16.507812 27.742188 16.585938 27.785156 16.679688 C 28.417969 17.996094 28.796875 20.09375 27.785156 22.824219 C 26.773438 25.554688 24.542969 26.652344 23.003906 26.042969 C 21.46875 25.433594 18.347656 25.628906 17.078125 25.628906 C 16.183594 25.628906 15.269531 25.199219 14.808594 24.621094 C 14.78125 24.738281 14.761719 24.851562 14.761719 24.96875 C 14.761719 26.042969 15.882812 26.382812 16.664062 26.382812 C 20.863281 26.382812 22.324219 26.726562 24.273438 26.871094 C 26.222656 27.019531 26.320312 26.1875 27.832031 23.554688 Z M 27.832031 23.554688 "/>
<path style=" stroke:none;fill-rule:nonzero;fill:url(#linear9);" d="M 3.253906 18.183594 C 3.660156 22.933594 6.414062 22.140625 7.542969 21.554688 L 7.628906 21.53125 C 7.46875 21.035156 7.34375 20.398438 7.238281 19.605469 C 7.003906 21.386719 3.960938 20.835938 3.253906 18.183594 Z M 3.253906 18.183594 "/>
<path style=" stroke:none;fill-rule:nonzero;fill:url(#linear10);" d="M 7.515625 21.136719 C 8.042969 23.203125 8.960938 23.382812 10.617188 23.382812 C 12.140625 23.382812 13.234375 22.929688 13.675781 21.902344 C 13.675781 21.898438 13.671875 21.894531 13.671875 21.886719 C 13.316406 21.410156 13.09375 20.742188 13.011719 19.804688 C 12.980469 19.414062 12.921875 18.949219 12.851562 18.433594 C 12.832031 18.488281 12.847656 18.65625 12.90625 18.96875 C 13.417969 21.664062 8.902344 23.066406 7.515625 21.136719 Z M 7.515625 21.136719 "/>
<path style=" stroke:none;fill-rule:nonzero;fill:url(#linear11);" d="M 15.695312 20.8125 C 14.4375 20.8125 13.273438 20.316406 12.957031 19.28125 C 12.980469 19.464844 13 19.644531 13.011719 19.804688 C 13.238281 22.398438 14.515625 22.96875 16.859375 22.96875 C 18.863281 22.96875 19.519531 22.070312 19.664062 19.914062 L 19.679688 19.382812 C 19.136719 20.628906 17.152344 20.8125 15.695312 20.8125 Z M 15.695312 20.8125 "/>
<path style=" stroke:none;fill-rule:nonzero;fill:url(#linear12);" d="M 22.976562 5.566406 C 24.589844 6.242188 25.347656 10.054688 25.347656 13.933594 C 25.347656 18.214844 24.980469 20.628906 22.75 20.628906 C 20.519531 20.628906 20.003906 20.117188 19.75 19.054688 C 19.738281 19.011719 19.722656 18.984375 19.707031 18.964844 C 19.722656 19.925781 19.738281 20.675781 19.738281 20.871094 C 19.738281 21.410156 19.980469 22.628906 23.25 22.628906 C 26.515625 22.628906 26.371094 20.09375 26.453125 9.816406 C 26.203125 9.054688 25.886719 8.257812 25.492188 7.460938 C 24.917969 6.285156 23.9375 5.742188 22.976562 5.566406 Z M 22.976562 5.566406 "/>
<use xlink:href="#surface5" mask="url(#mask0)"/>
<use xlink:href="#surface8" mask="url(#mask1)"/>
<use xlink:href="#surface11" mask="url(#mask2)"/>
<use xlink:href="#surface14" mask="url(#mask3)"/>
<use xlink:href="#surface17" mask="url(#mask4)"/>
<use xlink:href="#surface20" mask="url(#mask5)"/>
<use xlink:href="#surface23" mask="url(#mask6)"/>
<use xlink:href="#surface26" mask="url(#mask7)"/>
<path style=" stroke:none;fill-rule:nonzero;fill:url(#linear13);" d="M 26.03125 8.667969 C 25.871094 8.269531 25.691406 7.867188 25.492188 7.460938 C 24.367188 5.167969 21.6875 5.265625 20.660156 5.847656 C 20.328125 6.039062 20 6.148438 19.664062 6.183594 C 18.972656 6.253906 18.230469 5.984375 17.246094 5.261719 C 15.785156 4.1875 14.195312 5.21875 13.609375 5.996094 C 13.230469 6.5 12.871094 6.941406 12.265625 7.296875 C 11.929688 7.492188 11.511719 7.609375 10.957031 7.554688 C 9.394531 7.410156 8.320312 7.847656 7.636719 8.726562 C 7.507812 8.894531 7.378906 9.015625 7.25 9.121094 C 6.703125 9.5625 6.140625 9.507812 5.371094 9.507812 C 4.839844 9.507812 4.230469 9.902344 3.792969 11.304688 C 4.699219 9.621094 6.132812 10.363281 7.320312 10.09375 C 8.589844 9.796875 8.730469 6.957031 12.265625 8.042969 C 12.980469 8.261719 13.839844 5.410156 15.542969 5.410156 C 17.246094 5.410156 18.320312 6.851562 19.636719 6.851562 C 20.953125 6.851562 23.496094 4.902344 26.03125 8.667969 Z M 26.03125 8.667969 "/>
</g>
</svg>
